HIERARCHY
ROOT Hips
{
	OFFSET 0.00000 0.00000 0.00000
	CHANNELS 6 Xposition Yposition Zposition Zrotation Yrotation Xrotation 
	JOINT LHipJoint
	{
		OFFSET 0 0 0
		CHANNELS 3 Zrotation Yrotation Xrotation
		JOINT LeftHip
		{
			OFFSET 1.80322 -1.53100 0.99595
			CHANNELS 3 Zrotation Yrotation Xrotation
			JOINT LeftKnee
			{
				OFFSET 2.25177 -6.18669 0.00000
				CHANNELS 3 Zrotation Yrotation Xrotation
				JOINT LeftAnkle
				{
					OFFSET 2.26601 -6.22582 0.00000
					CHANNELS 3 Zrotation Yrotation Xrotation
					JOINT LeftToe
					{
						OFFSET 0.23701 -0.65119 2.15848
						CHANNELS 3 Zrotation Yrotation Xrotation
						End Site
						{
							OFFSET 0.00000 -0.00000 1.12949
						}
					}
				}
			}
		}
	}
	JOINT RHipJoint
	{
		OFFSET 0 0 0
		CHANNELS 3 Zrotation Yrotation Xrotation
		JOINT RightHip
		{
			OFFSET -1.93977 -1.53100 0.99595
			CHANNELS 3 Zrotation Yrotation Xrotation
			JOINT RightKnee
			{
				OFFSET -2.28036 -6.26523 0.00000
				CHANNELS 3 Zrotation Yrotation Xrotation
				JOINT RightAnkle
				{
					OFFSET -2.25490 -6.19528 0.00000
					CHANNELS 3 Zrotation Yrotation Xrotation
					JOINT RightToe
					{
						OFFSET -0.28375 -0.77960 2.23137
						CHANNELS 3 Zrotation Yrotation Xrotation
						End Site
						{
							OFFSET -0.00000 -0.00000 1.17899
						}
					}
				}
			}
		}
	}
	JOINT lowerback
	{
		OFFSET 0 0 0
		CHANNELS 3 Zrotation Yrotation Xrotation
		JOINT Chest
		{
			OFFSET -0.00088 2.12090 -0.02806
			CHANNELS 3 Zrotation Yrotation Xrotation
			JOINT Chest2
			{
				OFFSET -0.00286 2.09666 0.12974
				CHANNELS 3 Zrotation Yrotation Xrotation
				JOINT lowerneck
				{
					OFFSET 0 0 0
					CHANNELS 3 Zrotation Yrotation Xrotation
					JOINT Neck
					{
						OFFSET 0.07328 1.83526 0.07290
						CHANNELS 3 Zrotation Yrotation Xrotation
						JOINT Head
						{
							OFFSET -0.06683 1.74974 -0.49542
							CHANNELS 3 Zrotation Yrotation Xrotation
							End Site
							{
								OFFSET -0.03398 1.85163 -0.17573
							}
						}
					}
				}
				JOINT LeftCollar
				{
					OFFSET 0 0 0
					CHANNELS 3 Zrotation Yrotation Xrotation
					JOINT LeftShoulder
					{
						OFFSET 3.02113 1.18018 0.40602
CHANNELS 3 Zrotation Xrotation Yrotation
						JOINT LeftElbow
						{
OFFSET 0 -4.585380 -0.000000
CHANNELS 3 Zrotation Xrotation Yrotation
							JOINT LeftWrist
							{
OFFSET 0 -2.689350 -0.000000
CHANNELS 3 Zrotation Xrotation Yrotation
								JOINT lhand
								{
									OFFSET 0 0 0
CHANNELS 3 Zrotation Xrotation Yrotation
									JOINT LFingers
									{
OFFSET 0 -0.585060 -0.000000
CHANNELS 3 Zrotation Xrotation Yrotation
										End Site
										{
OFFSET 0 -0.471690 -0.000000
										}
									}
								}
								JOINT LThumb
								{
OFFSET 0 0.000000 0.000000
CHANNELS 3 Zrotation Xrotation Yrotation
									End Site
									{
OFFSET 0 -0.478890 0.478890
									}
								}
							}
						}
					}
				}
				JOINT RightCollar
				{
					OFFSET 0 0 0
					CHANNELS 3 Zrotation Yrotation Xrotation
					JOINT RightShoulder
					{
						OFFSET -2.95074 1.18843 0.31430
CHANNELS 3 Zrotation Xrotation Yrotation
						JOINT RightElbow
						{
OFFSET 0 -4.474500 -0.000000
CHANNELS 3 Zrotation Xrotation Yrotation
							JOINT RightWrist
							{
OFFSET 0 -2.938960 -0.000000
CHANNELS 3 Zrotation Xrotation Yrotation
								JOINT rhand
								{
									OFFSET 0 0 0
CHANNELS 3 Zrotation Xrotation Yrotation
									JOINT RFingers
									{
OFFSET 0 -0.405090 -0.000000
CHANNELS 3 Zrotation Xrotation Yrotation
										End Site
										{
OFFSET 0 -0.326600 -0.000000
										}
									}
								}
								JOINT RThumb
								{
OFFSET 0 0.000000 0.000000
CHANNELS 3 Zrotation Xrotation Yrotation
									End Site
									{
OFFSET 0 -0.331580 0.331580
									}
								}
							}
						}
					}
				}
			}
		}
	}
}
MOTION
Frames: 7
Frame Time: 0.008333333333333333
-1.149400 15.812400 4.709800 2.479800 -6.202500 10.387600 0.000000 0.000000 0.000000 -15.376000 -1.843400 -4.782600 0.019000 0.890200 2.446800 -0.077900 7.474200 -8.691700 0.004400 -0.429400 -1.179900 0.000000 0.000000 0.000000 11.140500 12.644500 -16.662200 -2.367000 -9.591900 27.665100 -0.336300 -12.906200 -22.020800 -0.006900 0.534700 -1.469200 -0.592000 -2.707700 -2.801000 1.380200 -3.591600 -7.152900 1.841000 -1.726200 -5.720300 17.158400 13.079600 -0.656000 -16.976200 21.296600 24.166800 -6.363300 10.104100 11.773600 0.000000 -0.000000 0.000000 1.444700 20.240100 -19.863200 24.907600 -36.109400 8.235400 6.154500 12.478200 -15.119100 0.000000 0.000000 0.000000 -7.125000 0.000000 0.000000 -19.624100 44.251800 -0.377600 0.000000 -0.000000 0.000000 -10.271100 17.963500 30.296200 -26.478900 -37.677700 -9.178800 -15.626300 -8.062200 0.807700 0.000000 0.000000 0.000000 7.125000 0.000000 -0.000000 8.674600 30.752400 3.050300
-1.213087 15.822481 4.634506 2.533287 -4.381947 11.234717 0.000000 0.000000 0.000000 -14.829756 -4.015569 -5.824516 0.022237 0.963271 2.647652 -0.091522 8.081120 -9.387021 0.042542 -1.322749 -3.637412 0.000000 0.000000 0.000000 11.298745 11.544254 -18.021442 -2.425573 -9.701305 28.014892 -0.338527 -13.093182 -22.259839 -0.003004 0.353374 -0.970977 -0.516241 -2.639079 -2.186106 1.185269 -3.505898 -7.002516 1.622923 -1.689301 -5.929952 17.769784 13.673112 -0.188879 -18.349187 22.144824 21.682619 -6.766536 10.529399 11.185815 0.000000 0.000000 0.000000 2.301784 20.599009 -21.893041 26.783578 -37.971417 9.365908 5.983573 11.200888 -15.130122 0.000000 0.000000 0.000000 -7.125000 0.000000 0.000000 -19.777576 44.243029 -0.385230 0.000000 0.000000 0.000000 -10.460498 20.206178 33.095837 -30.208738 -41.069330 -11.547415 -19.169199 -10.975821 -0.218100 0.000000 0.000000 0.000000 7.125000 0.000000 0.000000 5.810615 29.724043 2.174119
-1.275907 15.835329 4.564001 2.566818 -2.118216 12.107775 0.000000 0.000000 0.000000 -14.187179 -6.770534 -7.257150 0.042998 1.336780 3.676029 -0.050671 8.594936 -11.220266 0.205880 -2.915537 -8.044123 0.000000 0.000000 0.000000 11.549725 10.828399 -18.955020 -2.440959 -9.729682 28.105694 -0.264580 -14.086200 -22.740697 -0.000311 0.108457 -0.297966 -0.342717 -2.634454 -1.611466 1.011161 -3.502539 -6.868712 1.372115 -1.698420 -6.137103 17.992020 14.043322 -0.012441 -19.439657 22.599656 19.561030 -7.067440 10.749379 10.650115 0.000000 0.000000 0.000000 3.014467 20.852194 -23.537527 28.456166 -39.532220 10.413016 6.067428 10.314274 -15.060331 0.000000 0.000000 0.000000 -7.125000 0.000000 0.000000 -19.679423 44.186507 -0.411773 0.000000 0.000000 0.000000 -10.669138 22.151273 35.531790 -34.139137 -44.184045 -14.211175 -22.576416 -12.952932 -1.350924 0.000000 0.000000 0.000000 7.125000 0.000000 0.000000 3.104359 28.511170 1.247181
-1.331629 15.848810 4.507438 2.535373 0.408065 12.969237 0.000000 0.000000 0.000000 -13.400049 -9.809686 -8.827514 0.083329 1.860725 5.120921 0.005067 9.388698 -13.466271 0.381626 -3.966860 -10.983565 0.000000 0.000000 0.000000 11.900139 10.261930 -19.552563 -2.415071 -9.681842 27.952451 -0.148579 -15.434140 -23.354303 -0.000855 -0.178477 0.490383 -0.122666 -2.672328 -1.195049 0.918204 -3.549637 -6.756023 1.173948 -1.733662 -6.273845 17.926879 14.133661 -0.170729 -20.098257 22.580357 17.987589 -7.249520 10.730590 10.191762 0.000000 0.000000 0.000000 3.385196 20.992035 -24.542610 29.671031 -40.609510 11.194919 6.349859 9.791817 -14.820693 0.000000 0.000000 0.000000 -7.125000 0.000000 0.000000 -19.348542 43.991423 -0.501373 0.000000 0.000000 0.000000 -11.052126 23.584500 37.576051 -38.211960 -46.970772 -17.121411 -24.340078 -14.333059 -1.678948 0.000000 0.000000 0.000000 7.125000 0.000000 0.000000 1.731683 28.135569 0.710645
-1.372948 15.860595 4.473384 2.406103 3.035998 13.550349 0.000000 0.000000 0.000000 -12.520975 -12.797418 -10.015223 0.136871 2.384212 6.568697 -0.121656 12.507782 -16.127385 0.305950 -3.553823 -9.824951 0.000000 0.000000 0.000000 12.386695 9.981641 -19.441214 -2.348647 -9.557363 27.554905 -0.014997 -17.028803 -24.273940 -0.008483 -0.591951 1.626770 0.119896 -2.704008 -0.813472 0.921285 -3.581077 -6.634299 1.060351 -1.759732 -6.377341 17.717710 13.927840 -0.573373 -20.257885 22.113467 17.144626 -7.317319 10.492582 9.858267 0.000000 0.000000 0.000000 3.376382 21.062065 -25.061380 30.285668 -41.136975 11.597091 6.652452 9.469173 -14.813935 0.000000 0.000000 0.000000 -7.125000 0.000000 0.000000 -19.081552 44.018334 -0.480743 0.000000 0.000000 0.000000 -11.739971 24.495180 39.365448 -42.130570 -49.280772 -20.039984 -24.613975 -16.579282 -2.227175 0.000000 0.000000 0.000000 7.125000 0.000000 0.000000 1.517790 27.529253 0.644618
-1.394110 15.865829 4.472255 2.210522 5.276735 13.894873 0.000000 0.000000 0.000000 -11.712411 -15.146140 -10.514166 0.176545 2.706130 7.461694 -0.401177 16.251832 -18.591493 0.148202 -2.479864 -6.833867 0.000000 0.000000 0.000000 12.887143 9.843661 -18.959312 -2.274729 -9.416347 27.106614 0.067451 -18.307319 -25.345625 -0.027133 -1.062427 2.920632 0.263656 -2.601230 -0.690996 1.011974 -3.430120 -6.581666 1.072096 -1.687885 -6.396517 17.272774 13.398960 -1.247502 -19.699988 21.186502 17.342353 -7.182071 10.023206 9.717082 0.000000 0.000000 0.000000 2.985728 21.111840 -25.133452 30.122320 -40.998020 11.489824 6.908566 9.656798 -14.769669 0.000000 0.000000 0.000000 -7.125000 0.000000 0.000000 -18.842296 44.004663 -0.480812 0.000000 0.000000 0.000000 -12.815513 25.058638 41.077278 -45.678454 -51.096164 -22.765651 -24.505178 -18.438484 -2.010294 0.000000 0.000000 0.000000 7.125000 0.000000 0.000000 1.602173 27.769465 0.671415
-1.390580 15.864801 4.510668 2.058194 6.815039 14.176157 0.000000 0.000000 0.000000 -11.197308 -16.642797 -10.541730 0.186266 2.779716 7.666148 -0.649981 18.674006 -20.008705 0.074753 -1.763028 -4.851174 0.000000 0.000000 0.000000 13.212002 9.762132 -18.479997 -2.215810 -9.301842 26.744206 0.080899 -19.070565 -26.323699 -0.048585 -1.422337 3.911714 0.160999 -2.371375 -1.015401 1.157117 -3.114339 -6.704391 1.252815 -1.519805 -6.331342 16.841022 12.724707 -1.877155 -18.719197 20.125952 18.434219 -6.939236 9.502828 9.813262 0.000000 0.000000 0.000000 2.176606 21.319436 -24.438408 29.194712 -40.192917 10.886240 6.934934 10.371133 -14.581443 0.000000 0.000000 0.000000 -7.125000 0.000000 0.000000 -18.755139 43.828672 -0.563077 0.000000 0.000000 0.000000 -14.093339 25.309451 42.598129 -48.426312 -52.340448 -24.922863 -24.150813 -19.477590 -1.505184 0.000000 0.000000 0.000000 7.125000 0.000000 0.000000 1.879824 28.328377 0.762992
